<svg id="a0b77c5b-a59b-454a-92e9-fbb00a443572" data-name="svg10306" xmlns="http://www.w3.org/2000/svg" xmlns:xlink="http://www.w3.org/1999/xlink" viewBox="0 0 498 160.82"><defs><clipPath id="bafa1e0c-be9e-4789-a284-ca7952ecd22f"><path d="M257.55,51.41c-.28,22.4,20,34.9,35.22,42.34,15.67,7.62,20.94,12.51,20.88,19.33-.12,10.44-12.51,15-24.09,15.23-20.22.31-32-5.46-41.32-9.83L241,152.56c9.38,4.32,26.74,8.09,44.75,8.26,42.26,0,69.91-20.86,70.06-53.21.16-41-56.78-43.32-56.4-61.67.14-5.56,5.45-11.5,17.08-13,5.76-.76,21.66-1.35,39.68,7l7.07-33A107.85,107.85,0,0,0,325.53,0c-39.77,0-67.75,21.15-68,51.41M431.16,2.84A18.34,18.34,0,0,0,414,14.25L353.66,158.39h42.23l8.41-23.22h51.6l4.88,23.22H498L465.52,2.84H431.16m5.9,42,12.19,58.41H415.87l21.19-58.41m-230.71-42L173.06,158.39H213.3L246.58,2.84H206.35m-59.53,0L104.93,108.72,88,18.69c-2-10-9.84-15.85-18.56-15.85H1L0,7.36c14.06,3.05,30,8,39.7,13.23,5.92,3.22,7.61,6,9.56,13.67L81.35,158.39h42.53L189.08,2.84H146.82" fill="none"/></clipPath><linearGradient id="e9b4c6e9-56fe-44c0-8f82-c9fab7ea9023" x1="-708.87" y1="619.49" x2="-707.87" y2="619.49" gradientTransform="matrix(419.71, -154.57, -154.57, -419.71, 393316.33, 150592.51)" gradientUnits="userSpaceOnUse"><stop offset="0" stop-color="#222357"/><stop offset="1" stop-color="#254aa5"/></linearGradient></defs><title>visa</title><g id="a39871ac-40d3-44f8-bcd2-632b97ef68da" data-name="layer1"><g id="f6897433-ff15-4c65-8093-9bf69b38fb4f" data-name="g10267"><g clip-path="url(#bafa1e0c-be9e-4789-a284-ca7952ecd22f)"><g id="b98071cb-0f05-4ee0-ae8e-5f76dbde4901" data-name="g10269"><g id="f4b086b1-3b2a-45b7-ba32-b09b99795096" data-name="g10275"><path id="bf5e3790-ae8b-4c5f-80e6-e485af0d8cd1" data-name="path10283" d="M-52.15,19.21,438.53-161.5,550.15,141.61,59.48,322.32" fill="url(#e9b4c6e9-56fe-44c0-8f82-c9fab7ea9023)"/></g></g></g></g></g></svg>